<svg version="1.1" id="Layer_1" xmlns="http://www.w3.org/2000/svg" xmlns:xlink="http://www.w3.org/1999/xlink" x="0px" y="0px" viewBox="0 0 539.4 167.4" style="enable-background:new 0 0 539.4 167.4;" xml:space="preserve" width="539.4"  height="167.4" >
<style type="text/css">
	.st0{fill:#F47920;}
	.st1{fill:#603352;}
	.st2{fill:#FFFFFF;}
</style>
<g>
	<path class="st0" d="M48.1,4.7c-24,0-43.6,19.6-43.6,43.6v71.1c0,24,19.6,43.6,43.6,43.6h71.1c24,0,43.6-19.6,43.6-43.6V4.7H48.1z"/>
	<path class="st1" d="M265.5,108.7c-1.3-1-3.1-0.9-4.2,0.7c-3.1,4.2-8.4,8.4-14.9,8.4c-10.5-0.1-14.4-7.3-14.4-14.2c0,0,0-0.5,0-1.3   l25.7-13.7l0.2-0.1c5.6-3,8.5-8.1,8.6-14.7c0.1-8.6-6.5-17.7-19.5-17.8c-0.4,0-1.8,0-2.1,0c-13,0.1-19.6,9.2-19.6,17.8V104   c0.1,11.4,8,19.8,21.1,19.9c9.3,0.1,16.3-5.4,19.7-10.8C266.9,111.7,267.1,109.9,265.5,108.7z M231.9,73.6   c0-3.8,2.5-11.5,12.9-11.7c0.4,0,2.2,0,2.2,0c10.4,0.2,13,7.9,13,11.7c0,4.5-2.2,6.8-4.4,8.2l-23.8,12.7   C231.8,85.7,231.9,73.6,231.9,73.6z"/>
	<path class="st1" d="M316.4,71.6c0-7.8-7.9-15.8-19.9-15.8c-1.5,0-3.7,0.2-5.6,0.8c-2.9,0.7-6.5,2.5-8.7,4.6   c-1.3,1.3-1.3,3.2,0,4.4c1.2,1.2,3,1.2,4.8-0.2c2.6-2.1,5.5-3.5,9.5-3.5c10.6,0.1,13.2,7.9,13.2,11.7c0,0,0,0.8,0,0.8   S288,86.1,283.3,88.6c-4.7,2.5-8.2,7.5-8.3,14.8c-0.1,10.8,6.8,19.1,18.4,20.2c1.5,0.1,3.7,0.1,4.6,0c11.1-1.1,18.5-9.5,18.5-18.9   C316.5,95.3,316.4,78.7,316.4,71.6z M309.8,103.5L309.8,103.5c0,6.7-3.9,13.7-14.1,14c-10.1-0.3-13.8-7.3-13.9-14   c-0.1-6.5,4.4-8.7,7.3-10.3c2.9-1.6,20.7-11.1,20.7-11.1L309.8,103.5L309.8,103.5z"/>
	<path class="st1" d="M515.3,55.9c-0.3,0-1.8,0-2.1,0c-13,0.1-19.5,9.2-19.5,17.8v32.4c-0.1,8.6,6.5,17.7,19.5,17.8   c0.3,0,1.8,0,2.1,0c5.4,0,9.6-1.7,12.8-4.2v5.7l0,1.2c0.1,6.5-4.4,8.6-8,10.6c-2,1.1-15.7,8.4-16.6,8.9c-1,0.6-2,2.5-1,4.4   c1,1.9,3.1,2,4.1,1.5c1.1-0.5,19.8-10.6,19.8-10.6l0.1-0.1c4.9-2.8,8.5-7.4,8.5-14.7l0.1-3.7V74.4C535.1,65,528.3,56,515.3,55.9z    M528.4,106.1c0,3.8-2.6,11.5-12.9,11.7c0,0-1.9,0-2.3,0c-10.4-0.2-13-7.8-12.9-11.6h0V73.5h0c0-3.8,2.6-11.4,12.9-11.6   c0.4,0,2.2,0,2.3,0c10.4,0.2,13,7.9,12.9,11.7V106.1z"/>
	<path class="st2" d="M116.9,124c-9.3,0.1-16.3-5.4-19.7-10.9c-0.9-1.4-1-3.2,0.5-4.4c1.3-1,3.1-0.9,4.3,0.7   c3.1,4.2,8.4,8.4,14.9,8.4c10.5-0.1,14.5-7.5,14.4-14.2c-0.1-12.2-14.7-12.3-14.7-12.3c-12.4-0.6-19.7-7.3-19.8-17.5   c-0.1-8.6,6.5-17.7,19.5-17.8c5.7,0,11.2,2.3,14.3,5.4c1.3,1.2,1.3,3.2,0,4.4c-1.2,1.1-3,1.2-4.8-0.2c-2.6-2.1-5.6-3.5-9.5-3.5   c-10.6,0.1-13.2,7.9-13.2,11.7c0.1,10.6,13.2,11.5,13.2,11.5c11.3,0.6,21.4,5.5,21.5,18.3C138,115,130.1,123.9,116.9,124z"/>
	<path class="st2" d="M43,40.8c0-2.5-2-4.4-4.5-4.4c-2.5,0-4.4,2-4.4,4.5c0,2.5,2,4.4,4.5,4.4C41.1,45.3,43,43.3,43,40.8z"/>
	<path class="st2" d="M38.5,123.9c-1.8,0-3.2-1.3-3.2-2.9V58.8c0-1.6,1.5-2.9,3.2-2.9s3.2,1.3,3.2,2.9v62.1   C41.8,122.6,40.3,123.9,38.5,123.9z"/>
	<path class="st2" d="M88.6,118.8c-0.4-1.7-2.2-2.7-3.9-2.3c-6.8,1.8-12,1.4-15.4-1c-2.2-1.6-4.9-5-5.3-12.3l0-0.2   c-0.1-1.4-0.1-20.6,0-40.7h21.2c1.8,0,3.2-1.4,3.2-3.2c0-1.8-1.4-3.2-3.2-3.2H63.9c0-6.2,0-12.3,0-17.7c0-1.8-1.4-3.2-3.2-3.2h0   c-1.8,0-3.2,1.4-3.2,3.2c0,6.4-0.2,62.6,0,65.2l0,0.2c0.5,9.8,4.6,14.7,7.9,17.1c3.1,2.3,7,3.4,11.5,3.4c2.8,0,6-0.4,9.4-1.3   C88,122.2,89,120.5,88.6,118.8z"/>
	<path class="st1" d="M215.8,116.5c-6.8,1.8-12,1.4-15.4-1c-2.2-1.6-4.9-5-5.3-12.3l0-0.2c-0.1-1.4-0.1-20.6,0-40.7h0v-6.4h0   c0-6.2,0-12.3,0-17.7c0-1.8-1.4-3.2-3.2-3.2h0c-1.8,0-3.2,1.4-3.2,3.2c0,6.4-0.1,62.6,0,65.2l0,0.2c0.5,9.8,4.6,14.7,7.9,17.1   c3.1,2.3,7,3.4,11.5,3.4c2.9,0,6-0.4,9.4-1.3c1.7-0.5,2.7-2.2,2.3-3.9C219.3,117,217.5,116,215.8,116.5z"/>
	<path class="st1" d="M331.4,123.8C331.4,123.8,331.4,123.8,331.4,123.8c-1.8,0-3.2-1.4-3.2-3.2l0.1-43.4c0-1.1-0.1-11.5,7.3-17.4   c5.2-4.1,12.5-5,21.7-2.6c1.7,0.5,2.8,2.2,2.3,3.9c-0.5,1.7-2.2,2.8-3.9,2.3c-7.1-1.9-12.5-1.4-16,1.4c-5.1,4.1-4.9,12.1-4.9,12.2   c0,0,0,0.1,0,0.1l-0.1,43.4C334.6,122.4,333.1,123.8,331.4,123.8z"/>
	<path class="st1" d="M429.2,40.6c0-2.5-2-4.4-4.5-4.4c-2.5,0-4.4,2-4.4,4.5c0,2.5,2,4.4,4.5,4.4C427.4,45,429.3,43.1,429.2,40.6z"/>
	<path class="st1" d="M424.8,123.9c-1.8,0-3.2-1.3-3.2-2.9V58.8c0-1.6,1.5-2.9,3.2-2.9c1.8,0,3.2,1.3,3.2,2.9v62.1   C428.1,122.6,426.6,123.9,424.8,123.9z"/>
	<path class="st1" d="M405.8,123.9L405.8,123.9c-1.8,0-3.2-1.4-3.2-3.2c0-0.2,0.1-24.2,0-47.2c0-7.3-7.3-11.1-14.5-11.1c0,0,0,0,0,0   c-6.8,0-13.7,3.3-13.8,10.8c-0.3,22.6-0.5,47.3-0.5,47.5c0,1.8-1.5,3.2-3.2,3.2c0,0,0,0,0,0c-1.8,0-3.2-1.5-3.2-3.2   c0-0.2,0.2-24.9,0.5-47.5c0-8.3,6.4-17.2,20.2-17.2c0,0,0,0,0,0c10.4,0,20.9,6,21,17.5c0.1,23.1,0,47,0,47.3   C409,122.4,407.6,123.9,405.8,123.9z"/>
	<path class="st1" d="M478.6,123.9C478.6,123.9,478.6,123.9,478.6,123.9c-1.8,0-3.2-1.4-3.2-3.2c0-0.2,0.1-24.2,0-47.2   c0-7.3-7.3-11.1-14.5-11.1c0,0,0,0,0,0c-6.8,0-13.7,3.3-13.8,10.8c-0.3,22.6-0.5,47.3-0.5,47.5c0,1.8-1.5,3.2-3.2,3.2c0,0,0,0,0,0   c-1.8,0-3.2-1.5-3.2-3.2c0-0.2,0.2-24.9,0.5-47.5c0-8.3,6.4-17.2,20.2-17.2c0,0,0,0,0,0c10.4,0,20.9,6,21,17.5   c0.1,23.1,0,47,0,47.3C481.8,122.4,480.4,123.9,478.6,123.9z"/>
</g>
</svg>